<svg width="256" height="256" viewBox="0 0 256 256" fill="none" xmlns="http://www.w3.org/2000/svg">
<path d="M127.857 254.307C126.862 254.307 125.943 253.781 125.438 252.927L112.197 230.526C86.3307 186.799 59.5852 141.581 50.9753 124.299C45.2626 112.584 42.3711 100.004 42.3711 86.8897C42.3711 39.7548 80.7192 1.40674 127.857 1.40674C174.992 1.40674 213.343 39.7548 213.343 86.8926C213.343 99.9984 210.454 112.579 204.755 124.28C204.722 124.344 204.691 124.406 204.654 124.468C195.957 141.87 169.302 186.937 143.517 230.526L130.276 252.927C129.771 253.781 128.852 254.307 127.857 254.307ZM127.857 7.02674C83.8186 7.02674 47.9911 42.8542 47.9911 86.8926C47.9911 99.1413 50.6887 110.896 56.0108 121.821C64.5167 138.886 91.1977 183.995 117.002 227.615L127.857 245.975L138.684 227.662C164.499 184.02 191.192 138.892 199.709 121.793C199.734 121.745 199.759 121.7 199.782 121.655C205.05 110.769 207.723 99.0739 207.723 86.8897C207.723 42.8542 171.895 7.02674 127.857 7.02674Z" fill="#C8A462"/>
<path d="M127.857 120.652C107.403 120.652 90.7646 104.011 90.7646 83.5568C90.7646 63.1029 107.403 46.4648 127.857 46.4648C148.308 46.4648 164.949 63.1029 164.949 83.5568C164.949 104.011 148.308 120.652 127.857 120.652ZM127.857 52.0848C110.502 52.0848 96.3846 66.2023 96.3846 83.5568C96.3846 100.911 110.502 115.032 127.857 115.032C145.211 115.032 159.329 100.914 159.329 83.5568C159.329 66.2023 145.211 52.0848 127.857 52.0848Z" fill="#C8A462"/>
</svg>
