<svg width="256" height="256" viewBox="0 0 256 256" fill="none" xmlns="http://www.w3.org/2000/svg">
<path d="M233.509 221.252H22.2031C10.7355 221.252 1.40625 211.926 1.40625 200.458V55.2573C1.40625 43.7896 10.7355 34.4604 22.2031 34.4604H233.509C244.977 34.4604 254.306 43.7896 254.306 55.2573V200.458C254.306 211.926 244.977 221.252 233.509 221.252ZM22.2031 40.0776C13.8349 40.0776 7.02625 46.8863 7.02625 55.2573V200.458C7.02625 208.827 13.8349 215.632 22.2031 215.632H233.509C241.88 215.632 248.686 208.824 248.686 200.458V55.2573C248.686 46.8863 241.878 40.0804 233.509 40.0804L22.2031 40.0776Z" fill="#C8A462"/>
<path d="M127.857 152.528C113.627 152.528 99.9675 146.498 90.3826 135.98L7.17285 44.6858L11.3288 40.8979L94.5386 132.195C103.058 141.547 115.203 146.908 127.857 146.908C140.51 146.908 152.652 141.547 161.175 132.195L244.382 40.9008L248.538 44.6886L165.331 135.983C155.746 146.498 142.087 152.528 127.857 152.528Z" fill="#C8A462"/>
<path d="M88.3877 129.836L7.47852 211.192L11.4637 215.156L92.3729 133.799L88.3877 129.836Z" fill="#C8A462"/>
<path d="M167.31 129.831L163.326 133.795L244.247 215.129L248.231 211.165L167.31 129.831Z" fill="#C8A462"/>
</svg>
