<svg width="256" height="256" viewBox="0 0 256 256" fill="none" xmlns="http://www.w3.org/2000/svg">
<path d="M58.5454 7.02674C59.6469 7.02674 60.6838 7.62246 61.2514 8.57786L92.9623 62.0156C93.5215 62.9598 93.5468 64.1484 93.0297 65.1151L73.3682 101.741C70.3418 107.377 71.3478 114.2 75.8719 118.724L106.433 149.286L136.995 179.847C139.712 182.565 143.329 184.062 147.176 184.062C149.542 184.062 151.894 183.469 153.981 182.351L190.607 162.689C191.065 162.445 191.579 162.316 192.096 162.316C192.661 162.316 193.217 162.467 193.704 162.757L247.141 194.468C248.51 195.28 249.061 196.983 248.426 198.427C243.778 209.001 235.485 228.011 232.158 236.494C231.745 237.545 231.203 238.368 230.543 238.942C223.074 245.407 213.435 248.687 201.886 248.687C168.613 248.687 120.944 221.688 77.4848 178.229C49.6602 150.404 27.922 120.017 16.2746 92.6643C7.56078 72.1935 0.572305 43.8686 16.7776 25.1765C17.3508 24.5162 18.1741 23.971 19.2251 23.5608C27.7085 20.2337 46.7181 11.9386 57.2922 7.29369C57.694 7.11666 58.1155 7.02674 58.5454 7.02674ZM58.5454 1.40674C57.368 1.40674 56.1738 1.64559 55.0329 2.14858C44.6415 6.71483 25.5925 15.0268 17.1738 18.3286C15.4007 19.0226 13.7765 20.0567 12.5289 21.4954C-18.3418 57.1094 19.2729 127.966 73.5087 182.202C114.254 222.947 164.37 254.307 201.886 254.307C214.309 254.307 225.358 250.864 234.218 243.185C235.657 241.937 236.691 240.313 237.385 238.543C240.687 230.124 248.999 211.075 253.565 200.684C255.349 196.626 253.815 191.894 250.002 189.632L196.567 157.921C195.19 157.103 193.642 156.693 192.091 156.693C190.666 156.693 189.239 157.039 187.943 157.735L151.318 177.397C150.011 178.1 148.586 178.44 147.17 178.44C144.897 178.44 142.652 177.557 140.966 175.871L110.404 145.31L79.8424 114.748C77.1055 112.011 76.4873 107.805 78.3166 104.396L97.9781 67.7705C99.4309 65.0617 99.3635 61.788 97.7927 59.1438L66.0846 5.70885C64.4577 2.9691 61.5549 1.40674 58.5454 1.40674Z" fill="#C8A462"/>
</svg>
